<?xml version="1.0" encoding="UTF-8"?>
<svg xmlns="http://www.w3.org/2000/svg" viewBox="0 0 480 320" fill="none" stroke="#1F1B16" stroke-width="2.6" stroke-linecap="round" stroke-linejoin="round"><circle cx="58" cy="56" r="24"/><path d="M58 22 V12 M58 100 V90 M24 56 H14 M102 56 H92 M34 32 l-7 -7 M82 80 l7 7 M82 32 l7 -7 M34 80 l-7 7"/><circle cx="51" cy="52" r="2.2" fill="#1F1B16"/><circle cx="65" cy="52" r="2.2" fill="#1F1B16"/><path d="M51 63 q7 6 14 0"/><path d="M150 60 l3 7 l7 3 l-7 3 l-3 7 l-3 -7 l-7 -3 l7 -3z"/><path d="M410 96 l2.6 6 l6 2.6 l-6 2.6 l-2.6 6 l-2.6 -6 l-6 -2.6 l6 -2.6z"/><path d="M0 288 Q120 272 240 288 Q360 302 480 288"/><path d="M210 256 C 170 222 164 188 190 172 C 203 163 220 168 214 187 C 208 168 230 162 244 175 C 268 193 258 226 210 256 Z"/><circle cx="199" cy="200" r="3"/><circle cx="221" cy="200" r="3"/><path d="M201 214 q9 8 18 0"/><path d="M200 254 V276 M224 254 V276"/><path d="M172 208 l-20 10"/><path d="M250 200 L296 176"/><path d="M286 196 L306 150 L326 196 Z"/><path d="M292 182 l28 0 M296 190 l20 0"/><circle cx="298" cy="146" r="15"/><circle cx="314" cy="146" r="15"/><circle cx="306" cy="126" r="5.5"/></svg>