<?xml version="1.0" encoding="UTF-8"?>
<svg xmlns="http://www.w3.org/2000/svg" viewBox="0 0 360 260"><path d="M70 50 V200" stroke="#e7e0cf" stroke-width="26" stroke-linecap="round" stroke-linejoin="round" fill="none"/><path d="M70 50 H156" stroke="#e7e0cf" stroke-width="26" stroke-linecap="round" stroke-linejoin="round" fill="none"/><path d="M70 125 H140" stroke="#e7e0cf" stroke-width="26" stroke-linecap="round" stroke-linejoin="round" fill="none"/><path d="M70 200 H156" stroke="#e7e0cf" stroke-width="26" stroke-linecap="round" stroke-linejoin="round" fill="none"/><path d="M256 116 V200" stroke="#e7e0cf" stroke-width="26" stroke-linecap="round" stroke-linejoin="round" fill="none"/><circle cx="256" cy="80" r="13" fill="#e7e0cf"/><circle cx="256" cy="80" r="0" fill="#10b981"/><circle cx="256" cy="80" r="7" fill="#10b981"/><path d="M70 60 V190" stroke="#10b981" stroke-width="3.5" stroke-dasharray="1 10" stroke-linecap="round" fill="none"/><path d="M64 186 L70 202 L76 186 Z" fill="#10b981"/><path d="M78 50 H150" stroke="#10b981" stroke-width="3.5" stroke-dasharray="1 10" stroke-linecap="round" fill="none"/><path d="M146 44 L162 50 L146 56 Z" fill="#10b981"/><path d="M78 125 H134" stroke="#10b981" stroke-width="3.5" stroke-dasharray="1 10" stroke-linecap="round" fill="none"/><path d="M130 119 L146 125 L130 131 Z" fill="#10b981"/><path d="M78 200 H150" stroke="#10b981" stroke-width="3.5" stroke-dasharray="1 10" stroke-linecap="round" fill="none"/><path d="M146 194 L162 200 L146 206 Z" fill="#10b981"/><path d="M256 124 V190" stroke="#10b981" stroke-width="3.5" stroke-dasharray="1 10" stroke-linecap="round" fill="none"/><path d="M250 186 L256 202 L262 186 Z" fill="#10b981"/><circle cx="70" cy="50" r="13" fill="#047857"/><text x="70" y="55" text-anchor="middle" font-family="Arial" font-size="15" font-weight="bold" fill="#fff">1</text><circle cx="256" cy="116" r="13" fill="#10b981"/><text x="256" y="121" text-anchor="middle" font-family="Arial" font-size="15" font-weight="bold" fill="#fff">2</text></svg>