<?xml version="1.0" encoding="UTF-8"?>
<svg xmlns="http://www.w3.org/2000/svg" viewBox="0 0 360 260"><path d="M60 150 H128 Q128 116 92 116 Q54 116 54 156 Q54 200 96 200 Q120 200 130 182" stroke="#e7e0cf" stroke-width="26" stroke-linecap="round" stroke-linejoin="round" fill="none"/><path d="M256 116 V200" stroke="#e7e0cf" stroke-width="26" stroke-linecap="round" stroke-linejoin="round" fill="none"/><circle cx="256" cy="84" r="12" fill="#e7e0cf"/><circle cx="256" cy="84" r="0" fill="#10b981"/><circle cx="256" cy="84" r="7" fill="#10b981"/><path d="M62 150 H124 Q124 120 92 120 Q58 120 58 156 Q58 196 96 196 Q118 196 128 180" stroke="#10b981" stroke-width="3.5" stroke-dasharray="1 10" stroke-linecap="round" fill="none"/><path d="M132 186 L128 168 L118 182 Z" fill="#10b981"/><path d="M256 124 V190" stroke="#10b981" stroke-width="3.5" stroke-dasharray="1 10" stroke-linecap="round" fill="none"/><path d="M250 186 L256 202 L262 186 Z" fill="#10b981"/><circle cx="60" cy="150" r="13" fill="#047857"/><text x="60" y="155" text-anchor="middle" font-family="Arial" font-size="15" font-weight="bold" fill="#fff">1</text><circle cx="256" cy="116" r="13" fill="#10b981"/><text x="256" y="121" text-anchor="middle" font-family="Arial" font-size="15" font-weight="bold" fill="#fff">2</text></svg>